


A thief with a unique code of professional ethics is double-crossed by his crew and left for dead. Assuming a new disguise and forming an unlikely alliance with a woman on the inside, he looks to hijack the score of the crew's latest heist. 



Director:
 Taylor Hackford 

Writers:
 John J. McLaughlin (screenplay), Donald E. Westlake (novel) 

Stars:
 Jason Statham, Jennifer Lopez, Michael Chiklis 

Genres:
  Action |  Crime |  Thriller 

Country:
 USA 

Language:
 English 






Parker 2013 BRRiP x264 AC3-OFFLiNE

 iMDB  http://www.imdb.com/title/tt1904996

 Source  720p iMFAMOUS  -  MANY THANKX

 Media Info
 Parker 2013 BRRiP x264 AC3-OFFLiNE.mp4
 Format                                   : MPEG-4
 Format profile                           : Base Media
 Codec ID                                 : isom
 File size                                : 2.25 GiB
 Duration                                 : 1h 58mn
 Overall bit rate mode                    : Variable
 Overall bit rate                         : 2 714 Kbps
 Encoded date                             : UTC 2013-05-03 03:02:49
 Tagged date                              : UTC 2013-05-03 03:02:49

 Video
 ID                                       : 1
 Format                                   : AVC
 Format/Info                              : Advanced Video Codec
 Format profile                           : High@L4.1
 Format settings, CABAC                   : Yes
 Format settings, ReFrames                : 3 frames
 Codec ID                                 : avc1
 Codec ID/Info                            : Advanced Video Coding
 Duration                                 : 1h 58mn
 Bit rate mode                            : Variable
 Bit rate                                 : 2 328 Kbps
 Maximum bit rate                         : 40.0 Mbps
 Width                                    : 720 pixels
 Height                                   : 304 pixels
 Display aspect ratio                     : 2.35:1
 Frame rate mode                          : Constant
 Frame rate                               : 23.976 fps
 Color space                              : YUV
 Chroma subsampling                       : 4:2:0
 Bit depth                                : 8 bits
 Scan type                                : Progressive
 Bits/(Pixel*Frame)                       : 0.444
 Stream size                              : 1.93 GiB (86%)
 Title                                    : Parker 2013 BRRiP x264 AC3-OFFLiNE
 Writing library                          : x264 core 132 r2309 3b1f1f7

 Audio
 ID                                       : 2
 Format                                   : AC-3
 Format/Info                              : Audio Coding 3
 Mode extension                           : CM (complete main)
 Format settings, Endianness              : Big
 Codec ID                                 : ac-3
 Duration                                 : 1h 58mn
 Bit rate mode                            : Constant
 Bit rate                                 : 384 Kbps
 Channel(s)                               : 6 channels
 Channel positions                        : Front: L C R, Side: L R, LFE
 Sampling rate                            : 48.0 KHz
 Bit depth                                : 16 bits
 Compression mode                         : Lossy
 Stream size                              : 326 MiB (14%)
 Title                                    : 5.1
 Language                                 : English




 
http://addpix.net/viewer.php?file=42890920931538377396.jpg 
http://addpix.net/viewer.php?file=41285929369590846342.jpg 
http://addpix.net/viewer.php?file=31196176812111076230.jpg 
http://addpix.net/viewer.php?file=30494002880556750866.jpg
